<?xml version="1.0" encoding="UTF-8" standalone="no"?>
<svg
   width="130mm"
   height="128.5mm"
   viewBox="0 0 491.33889 485.6696"
   version="1.1"
   id="svg182"
   sodipodi:docname="8Steps.svg"
   inkscape:version="1.1.2 (0a00cf5339, 2022-02-04)"
   xmlns:inkscape="http://www.inkscape.org/namespaces/inkscape"
   xmlns:sodipodi="http://sodipodi.sourceforge.net/DTD/sodipodi-0.dtd"
   xmlns="http://www.w3.org/2000/svg"
   xmlns:svg="http://www.w3.org/2000/svg"
   xmlns:rdf="http://www.w3.org/1999/02/22-rdf-syntax-ns#"
   xmlns:cc="http://creativecommons.org/ns#"
   xmlns:dc="http://purl.org/dc/elements/1.1/">
  <metadata
     id="metadata186">
    <rdf:RDF>
      <cc:Work
         rdf:about="">
        <dc:format>image/svg+xml</dc:format>
        <dc:type
           rdf:resource="http://purl.org/dc/dcmitype/StillImage" />
      </cc:Work>
    </rdf:RDF>
  </metadata>
  <sodipodi:namedview
     pagecolor="#ffffff"
     bordercolor="#666666"
     borderopacity="1"
     objecttolerance="10"
     gridtolerance="10"
     guidetolerance="10"
     inkscape:pageopacity="0"
     inkscape:pageshadow="2"
     inkscape:window-width="1920"
     inkscape:window-height="1019"
     id="namedview184"
     showgrid="false"
     inkscape:zoom="1.2421053"
     inkscape:cx="269.30085"
     inkscape:cy="183.15678"
     inkscape:window-x="0"
     inkscape:window-y="0"
     inkscape:window-maximized="1"
     inkscape:current-layer="svg182"
     inkscape:pagecheckerboard="0"
     units="mm"
     inkscape:document-units="mm" />
  <defs
     id="defs9">
    <style
       id="style2">
      .uuid-0c9ddb80-22bd-4a22-8528-962bf7b48397 {
        fill: #f0f0f0;
      }

      .uuid-82085e52-8747-4a5d-ac9c-b736d173b8c5 {
        fill: blue;
      }

      .uuid-fb4d19a9-8921-4cdf-a409-de517a192921 {
        fill: url(#uuid-07aa4ee8-d7a8-48eb-968d-bdcabcc923ce);
      }

      .uuid-3326c89e-8368-4878-a4f1-ba037cb7c39f {
        fill: lime;
      }

      .uuid-4dbed8ad-d2c5-4c8b-b620-9e35a1f53b04 {
        fill: #f0f;
      }

      .uuid-117729c5-f8af-4d83-9483-da96eae0020f {
        fill: #1f1f1f;
      }

      .uuid-414702a3-8dc8-4626-b985-e96dd05e709b {
        fill: red;
      }
    </style>
    <linearGradient
       id="uuid-07aa4ee8-d7a8-48eb-968d-bdcabcc923ce"
       x1="37.5"
       y1="0"
       x2="37.5"
       y2="380"
       gradientUnits="userSpaceOnUse">
      <stop
         offset="0"
         stop-color="#ebebeb"
         id="stop4" />
      <stop
         offset="1"
         stop-color="#e1e1e1"
         id="stop6" />
    </linearGradient>
  </defs>
  <g
     id="uuid-a099f316-5bed-45ea-963a-5ecd9a314f68"
     data-name="FND BG"
     style="fill:#808080"
     transform="scale(1.6377963,1.2780779)">
    <rect
       width="300"
       height="380"
       style="fill:#808080;stroke-width:2"
       id="rect11"
       x="0"
       y="0" />
  </g>
  <g
     id="uuid-cfaf5c6b-8abc-48ef-9dd3-816e6edbd046"
     data-name="components"
     style="display:none"
     inkscape:groupmode="layer">
    <circle
       id="uuid-fb0b02d5-0424-4a99-a812-8a2c61568ad2"
       data-name="CLOCK_LIGHT#TinyLight"
       cx="32.5597"
       cy="188.39954"
       r="1.5"
       style="fill:#ff00ff" />
    <circle
       id="uuid-fd86755a-bf60-40f8-91fd-7ae71a52fea3"
       data-name="NotB#TinyLight"
       cx="64.559898"
       cy="188.39951"
       r="1.5"
       style="fill:#ff00ff" />
    <circle
       id="uuid-092d8efb-d659-4dee-ab48-61fe2a69c4c0"
       data-name="Or#TinyLight"
       cx="32.5597"
       cy="233.28703"
       r="1.5"
       style="fill:#ff00ff" />
    <circle
       id="uuid-fa43382f-79cd-478a-a795-3c19935ffa66"
       data-name="Nor#TinyLight"
       cx="64.559898"
       cy="233.287"
       r="1.5"
       style="fill:#ff00ff" />
    <circle
       id="uuid-c8c57001-4af3-4cc2-a99d-4be6bc4d8524"
       data-name="And#TinyLight"
       cx="32.5597"
       cy="278.24713"
       r="1.5"
       style="fill:#ff00ff" />
    <circle
       id="uuid-4f60a204-6313-4465-a834-eee8e64c9dee"
       data-name="Nand#TinyLight"
       cx="64.559898"
       cy="278.2471"
       r="1.5"
       style="fill:#ff00ff" />
    <circle
       id="uuid-fe818d36-ce0c-40fe-93aa-c6b9c261d541"
       data-name="Xor#TinyLight"
       cx="32.559719"
       cy="323.01172"
       r="1.5"
       style="fill:#ff00ff" />
    <circle
       id="uuid-663df327-15ab-45df-bfe4-597ceb2f4def"
       data-name="Xnor#TinyLight"
       cx="64.559853"
       cy="323.01172"
       r="1.5"
       style="fill:#ff00ff" />
    <circle
       id="uuid-115ffa28-ac3d-4f6e-bbea-3ca6cc29d7b6"
       data-name="B#PJ301MPort"
       cx="21.551001"
       cy="154.45821"
       r="5"
       style="fill:#00ff00" />
    <circle
       id="uuid-b9e11c33-ca15-4ec9-8f90-fec50580250a"
       data-name="B#PJ301MPort"
       cx="53.551128"
       cy="154.45821"
       r="5"
       style="fill:#00ff00" />
    <circle
       id="uuid-875e2950-5619-4941-9cd3-f6d29e31fa51"
       data-name="NotA#PJ301MPort"
       cx="21.545441"
       cy="199.39957"
       r="5"
       style="fill:#0000ff" />
    <circle
       id="uuid-c0693d71-a037-4df2-973c-41ac0812848b"
       data-name="NotB#PJ301MPort"
       cx="53.54557"
       cy="199.39957"
       r="5"
       style="fill:#0000ff" />
    <circle
       id="uuid-8b746299-247c-465c-8679-6eec5f28d54b"
       data-name="Or#PJ301MPort"
       cx="21.545441"
       cy="244.28706"
       r="5"
       style="fill:#0000ff" />
    <circle
       id="uuid-6009b01d-b4e6-4018-88fe-53bdf8b0cdf2"
       data-name="Nor#PJ301MPort"
       cx="53.54557"
       cy="244.28706"
       r="5"
       style="fill:#0000ff" />
    <circle
       id="uuid-7749e9d1-2fde-45cd-839d-eed8bcff3a24"
       data-name="And#PJ301MPort"
       cx="21.545441"
       cy="289.2471"
       r="5"
       style="fill:#0000ff" />
    <circle
       id="uuid-a721cf26-967a-4096-9f96-3c559f80769d"
       data-name="Nand#PJ301MPort"
       cx="53.54557"
       cy="289.2471"
       r="5"
       style="fill:#0000ff" />
    <circle
       id="uuid-07ce133b-45e8-47d4-8760-62f6884b661f"
       data-name="Xor#PJ301MPort"
       cx="21.545441"
       cy="334"
       r="5"
       style="fill:#0000ff" />
    <circle
       id="uuid-e054d19e-a661-4b36-9f1f-4400e7c0c382"
       data-name="Xnor#PJ301MPort"
       cx="53.54557"
       cy="334"
       r="5"
       style="fill:#0000ff" />
    <circle
       id="uuid-e8571d49-349b-4233-a51d-0230b55a5d9a"
       data-name="Bpush#LargeLEDLightBezel"
       cx="37.5"
       cy="78.999901"
       r="5"
       style="fill:#ff0000" />
  </g>
  <g
     aria-label="8 Steps"
     id="text3752"
     style="font-size:9.33333px">
    <path
       d="m 233.43881,14.921434 q -0.49218,0 -0.75651,0.26888 -0.26432,0.26888 -0.26432,0.770182 0,0.501302 0.26432,0.770182 0.26433,0.264323 0.75651,0.264323 0.48763,0 0.7474,-0.264323 0.25976,-0.26888 0.25976,-0.770182 0,-0.505859 -0.25976,-0.770182 -0.25977,-0.26888 -0.7474,-0.26888 z m -1.2806,-0.578776 q -0.61979,-0.186849 -0.93424,-0.574218 -0.31445,-0.38737 -0.31445,-0.966146 0,-0.861328 0.64257,-1.312499 0.64258,-0.451172 1.88672,-0.451172 1.23503,0 1.87761,0.451172 0.64257,0.446614 0.64257,1.312499 0,0.578776 -0.31901,0.966146 -0.31445,0.387369 -0.93424,0.574218 0.69271,0.191407 1.04362,0.624349 0.35547,0.428385 0.35547,1.084635 0,1.011719 -0.67448,1.53125 -0.66992,0.514973 -1.99154,0.514973 -1.32617,0 -2.0052,-0.514973 -0.67448,-0.519531 -0.67448,-1.53125 0,-0.65625 0.35091,-1.084635 0.35547,-0.432942 1.04817,-0.624349 z m 0.41016,-1.362629 q 0,0.405598 0.22331,0.624348 0.22786,0.21875 0.64713,0.21875 0.41016,0 0.63347,-0.21875 0.2233,-0.21875 0.2233,-0.624348 0,-0.405599 -0.2233,-0.619792 -0.22331,-0.21875 -0.63347,-0.21875 -0.41927,0 -0.64713,0.21875 -0.22331,0.21875 -0.22331,0.619792 z"
       id="path4606" />
    <path
       d="m 245.52475,11.375862 v 1.440104 q -0.56055,-0.250651 -1.09375,-0.378255 -0.53321,-0.127604 -1.00716,-0.127604 -0.62891,0 -0.92969,0.173177 -0.30078,0.173177 -0.30078,0.53776 0,0.273438 0.20052,0.428385 0.20508,0.150391 0.73828,0.259766 l 0.74739,0.150391 q 1.13477,0.227864 1.61329,0.692708 0.47851,0.464843 0.47851,1.321614 0,1.12565 -0.66992,1.677083 -0.66537,0.546874 -2.03711,0.546874 -0.64713,0 -1.29883,-0.123046 -0.65169,-0.123047 -1.30338,-0.364584 v -1.481119 q 0.65169,0.346354 1.25781,0.524088 0.61068,0.173177 1.17578,0.173177 0.57422,0 0.87956,-0.191406 0.30534,-0.191406 0.30534,-0.546875 0,-0.31901 -0.20964,-0.492187 -0.20508,-0.173177 -0.82487,-0.309896 l -0.67903,-0.15039 q -1.02084,-0.21875 -1.4948,-0.697266 -0.4694,-0.478515 -0.4694,-1.289713 0,-1.016275 0.65625,-1.56315 0.65625,-0.546875 1.88672,-0.546875 0.56055,0 1.153,0.08659 0.59244,0.08203 1.22591,0.25065 z"
       id="path4608" />
    <path
       d="m 249.22071,11.412321 v 1.449218 h 1.68164 v 1.166666 h -1.68164 v 2.164713 q 0,0.355469 0.14127,0.483073 0.14128,0.123047 0.56055,0.123047 h 0.83854 v 1.166666 h -1.39909 q -0.96614,0 -1.37174,-0.401042 -0.40104,-0.405598 -0.40104,-1.371744 v -2.164713 h -0.8112 v -1.166666 h 0.8112 v -1.449218 z"
       id="path4610" />
    <path
       d="m 256.99545,15.39995 v 0.464843 h -3.81446 q 0.0592,0.574219 0.41472,0.861328 0.35547,0.287109 0.99349,0.287109 0.51497,0 1.05273,-0.15039 0.54232,-0.154948 1.11198,-0.464844 v 1.257812 q -0.57878,0.21875 -1.15755,0.328125 -0.57878,0.113932 -1.15755,0.113932 -1.38542,0 -2.1556,-0.701822 -0.76563,-0.70638 -0.76563,-1.977864 0,-1.248698 0.75196,-1.964192 0.75651,-0.715495 2.07812,-0.715495 1.20312,0 1.92318,0.724609 0.72461,0.724609 0.72461,1.936849 z m -1.67709,-0.542318 q 0,-0.464843 -0.27343,-0.747395 -0.26888,-0.28711 -0.70638,-0.28711 -0.47396,0 -0.77019,0.26888 -0.29622,0.264323 -0.36914,0.765625 z"
       id="path4612" />
    <path
       d="m 259.86198,17.227423 v 2.679687 h -1.63151 v -7.045571 h 1.63151 v 0.747396 q 0.33724,-0.446615 0.7474,-0.65625 0.41015,-0.214193 0.94336,-0.214193 0.94335,0 1.54947,0.751953 0.60612,0.747396 0.60612,1.927734 0,1.180338 -0.60612,1.932291 -0.60612,0.747395 -1.54947,0.747395 -0.53321,0 -0.94336,-0.209635 -0.41016,-0.214193 -0.7474,-0.660807 z m 1.08464,-3.304035 q -0.52409,0 -0.80664,0.387369 -0.278,0.382813 -0.278,1.107422 0,0.724609 0.278,1.111979 0.28255,0.382812 0.80664,0.382812 0.52408,0 0.79752,-0.382812 0.278,-0.382813 0.278,-1.111979 0,-0.729167 -0.278,-1.111979 -0.27344,-0.382812 -0.79752,-0.382812 z"
       id="path4614" />
    <path
       d="m 268.89909,13.021044 v 1.239583 q -0.52409,-0.21875 -1.01172,-0.328125 -0.48763,-0.109375 -0.92057,-0.109375 -0.46485,0 -0.69271,0.11849 -0.22331,0.113932 -0.22331,0.355468 0,0.195964 0.16862,0.300782 0.17318,0.104817 0.61524,0.154947 l 0.28711,0.04102 q 1.25325,0.159505 1.68619,0.524088 0.43295,0.364584 0.43295,1.14388 0,0.815755 -0.60157,1.225911 -0.60156,0.410156 -1.79557,0.410156 -0.50586,0 -1.04818,-0.08203 -0.53776,-0.07747 -1.10742,-0.236979 v -1.239583 q 0.48763,0.236979 0.99805,0.355469 0.51497,0.118489 1.04362,0.118489 0.47851,0 0.72005,-0.132161 0.24154,-0.132161 0.24154,-0.391927 0,-0.21875 -0.16862,-0.323568 -0.16407,-0.109375 -0.66081,-0.168619 l -0.28711,-0.03646 q -1.08919,-0.136718 -1.52669,-0.505859 -0.4375,-0.36914 -0.4375,-1.121093 0,-0.811198 0.55599,-1.203125 0.55599,-0.391927 1.70442,-0.391927 0.45118,0 0.94792,0.06836 0.49675,0.06836 1.08008,0.214192 z"
       id="path4616" />
  </g>
  <g
     aria-label="ADDRESS INPUTS"
     id="text1611"
     style="font-size:20px;fill:#000000;fill-opacity:1"
     transform="translate(-35.21619,83.669965)">
    <path
       d="m 115.65602,281.49484 h -5.87891 l -0.92773,2.65625 h -3.7793 l 5.40039,-14.58008 h 4.48243 l 5.40039,14.58008 h -3.7793 z m -4.94141,-2.70508 h 3.99415 l -1.99219,-5.80078 z"
       id="path4256"
       style="fill:#000000;fill-opacity:1" />
    <path
       d="m 126.04665,272.41281 v 8.89649 h 1.34765 q 2.30469,0 3.51563,-1.14258 1.2207,-1.14258 1.2207,-3.32031 0,-2.16797 -1.21094,-3.30079 -1.21093,-1.13281 -3.52539,-1.13281 z m -3.75977,-2.8418 h 3.96484 q 3.32032,0 4.94141,0.47852 1.63086,0.46875 2.79297,1.60156 1.02539,0.98633 1.52344,2.27539 0.49804,1.28907 0.49804,2.91993 0,1.65039 -0.49804,2.94921 -0.49805,1.28907 -1.52344,2.27539 -1.17188,1.13282 -2.8125,1.61133 -1.64063,0.46875 -4.92188,0.46875 h -3.96484 z"
       id="path4253"
       style="fill:#000000;fill-opacity:1" />
    <path
       d="m 142.64821,272.41281 v 8.89649 h 1.34765 q 2.30469,0 3.51563,-1.14258 1.2207,-1.14258 1.2207,-3.32031 0,-2.16797 -1.21093,-3.30079 -1.21094,-1.13281 -3.5254,-1.13281 z m -3.75977,-2.8418 h 3.96485 q 3.32031,0 4.9414,0.47852 1.63086,0.46875 2.79297,1.60156 1.02539,0.98633 1.52344,2.27539 0.49805,1.28907 0.49805,2.91993 0,1.65039 -0.49805,2.94921 -0.49805,1.28907 -1.52344,2.27539 -1.17187,1.13282 -2.8125,1.61133 -1.64062,0.46875 -4.92187,0.46875 h -3.96485 z"
       id="path4250"
       style="fill:#000000;fill-opacity:1" />
    <path
       d="m 160.8318,276.03586 q 1.18164,0 1.68946,-0.43945 0.51757,-0.43946 0.51757,-1.44532 0,-0.99609 -0.51757,-1.42578 -0.50782,-0.42969 -1.68946,-0.42969 h -1.58203 v 3.74024 z m -1.58203,2.59765 v 5.51758 h -3.75976 v -14.58008 h 5.74218 q 2.88086,0 4.21875,0.9668 1.34766,0.9668 1.34766,3.05664 0,1.44531 -0.70313,2.37305 -0.69336,0.92773 -2.09961,1.36719 0.77149,0.17578 1.37696,0.80078 0.61523,0.61523 1.24023,1.875 l 2.04102,4.14062 h -4.00391 l -1.77734,-3.62304 q -0.53711,-1.09375 -1.09375,-1.49414 -0.54688,-0.4004 -1.46485,-0.4004 z"
       id="path4247"
       style="fill:#000000;fill-opacity:1" />
    <path
       d="m 170.8904,269.57101 h 10.14648 v 2.8418 h -6.38672 v 2.71485 h 6.00586 v 2.84179 h -6.00586 v 3.33985 h 6.60156 v 2.84179 H 170.8904 Z"
       id="path4244"
       style="fill:#000000;fill-opacity:1" />
    <path
       d="m 194.69899,270.03 v 3.08594 q -1.20117,-0.53711 -2.34375,-0.81055 -1.14258,-0.27344 -2.1582,-0.27344 -1.34766,0 -1.99219,0.3711 -0.64453,0.37109 -0.64453,1.15234 0,0.58594 0.42969,0.91797 0.43945,0.32226 1.58203,0.55664 l 1.60156,0.32226 q 2.43164,0.48829 3.45703,1.48438 1.02539,0.99609 1.02539,2.83203 0,2.41211 -1.43555,3.59375 -1.42578,1.17188 -4.36523,1.17188 -1.38672,0 -2.7832,-0.26368 -1.39649,-0.26367 -2.79297,-0.78125 v -3.17382 q 1.39648,0.74218 2.69531,1.12304 1.30859,0.3711 2.51953,0.3711 1.23047,0 1.88477,-0.41016 0.65429,-0.41016 0.65429,-1.17187 0,-0.6836 -0.44921,-1.05469 -0.43946,-0.3711 -1.76758,-0.66406 l -1.45508,-0.32227 q -2.1875,-0.46875 -3.20313,-1.49414 -1.00586,-1.02539 -1.00586,-2.76367 0,-2.17774 1.40625,-3.34961 1.40625,-1.17188 4.04297,-1.17188 1.20118,0 2.47071,0.18555 1.26953,0.17578 2.62695,0.53711 z"
       id="path4241"
       style="fill:#000000;fill-opacity:1" />
    <path
       d="m 208.20485,270.03 v 3.08594 q -1.20117,-0.53711 -2.34375,-0.81055 -1.14258,-0.27344 -2.1582,-0.27344 -1.34766,0 -1.99219,0.3711 -0.64453,0.37109 -0.64453,1.15234 0,0.58594 0.42968,0.91797 0.43946,0.32226 1.58204,0.55664 l 1.60156,0.32226 q 2.43164,0.48829 3.45703,1.48438 1.02539,0.99609 1.02539,2.83203 0,2.41211 -1.43555,3.59375 -1.42578,1.17188 -4.36523,1.17188 -1.38672,0 -2.7832,-0.26368 -1.39649,-0.26367 -2.79297,-0.78125 v -3.17382 q 1.39648,0.74218 2.69531,1.12304 1.30859,0.3711 2.51953,0.3711 1.23047,0 1.88477,-0.41016 0.65429,-0.41016 0.65429,-1.17187 0,-0.6836 -0.44922,-1.05469 -0.43945,-0.3711 -1.76757,-0.66406 l -1.45508,-0.32227 q -2.1875,-0.46875 -3.20313,-1.49414 -1.00586,-1.02539 -1.00586,-2.76367 0,-2.17774 1.40625,-3.34961 1.40625,-1.17188 4.04297,-1.17188 1.20117,0 2.47071,0.18555 1.26953,0.17578 2.62695,0.53711 z"
       id="path4238"
       style="fill:#000000;fill-opacity:1" />
    <path
       d="m 219.42555,269.57101 h 3.75977 v 14.58008 h -3.75977 z"
       id="path4235"
       style="fill:#000000;fill-opacity:1" />
    <path
       d="m 226.86696,269.57101 h 4.19922 l 5.30273,10 v -10 h 3.56445 v 14.58008 h -4.19921 l -5.30274,-10 v 10 h -3.56445 z"
       id="path4232"
       style="fill:#000000;fill-opacity:1" />
    <path
       d="m 243.60524,269.57101 h 6.24023 q 2.78321,0 4.26758,1.24024 1.49414,1.23047 1.49414,3.51562 0,2.29493 -1.49414,3.53516 -1.48437,1.23047 -4.26758,1.23047 h -2.48046 v 5.05859 h -3.75977 z m 3.75977,2.72461 v 4.07227 h 2.08007 q 1.09375,0 1.68946,-0.52734 0.5957,-0.53711 0.5957,-1.51368 0,-0.97656 -0.5957,-1.5039 -0.59571,-0.52735 -1.68946,-0.52735 z"
       id="path4229"
       style="fill:#000000;fill-opacity:1" />
    <path
       d="m 258.26344,269.57101 h 3.75977 v 8.74024 q 0,1.80664 0.58594,2.58789 0.5957,0.77148 1.93359,0.77148 1.34766,0 1.93359,-0.77148 0.59571,-0.78125 0.59571,-2.58789 v -8.74024 h 3.75976 v 8.74024 q 0,3.0957 -1.55273,4.60937 -1.55274,1.51368 -4.73633,1.51368 -3.17383,0 -4.72656,-1.51368 -1.55274,-1.51367 -1.55274,-4.60937 z"
       id="path4226"
       style="fill:#000000;fill-opacity:1" />
    <path
       d="m 272.7654,269.57101 h 13.4375 v 2.8418 h -4.83399 v 11.73828 h -3.75976 v -11.73828 h -4.84375 z"
       id="path4223"
       style="fill:#000000;fill-opacity:1" />
    <path
       d="m 298.29274,270.03 v 3.08594 q -1.20117,-0.53711 -2.34375,-0.81055 -1.14258,-0.27344 -2.1582,-0.27344 -1.34766,0 -1.99219,0.3711 -0.64453,0.37109 -0.64453,1.15234 0,0.58594 0.42969,0.91797 0.43945,0.32226 1.58203,0.55664 l 1.60156,0.32226 q 2.43164,0.48829 3.45703,1.48438 1.02539,0.99609 1.02539,2.83203 0,2.41211 -1.43555,3.59375 -1.42578,1.17188 -4.36523,1.17188 -1.38672,0 -2.7832,-0.26368 -1.39649,-0.26367 -2.79297,-0.78125 v -3.17382 q 1.39648,0.74218 2.69531,1.12304 1.30859,0.3711 2.51953,0.3711 1.23047,0 1.88477,-0.41016 0.65429,-0.41016 0.65429,-1.17187 0,-0.6836 -0.44921,-1.05469 -0.43946,-0.3711 -1.76758,-0.66406 l -1.45508,-0.32227 q -2.1875,-0.46875 -3.20313,-1.49414 -1.00586,-1.02539 -1.00586,-2.76367 0,-2.17774 1.40625,-3.34961 1.40625,-1.17188 4.04297,-1.17188 1.20118,0 2.47071,0.18555 1.26953,0.17578 2.62695,0.53711 z"
       id="path4220"
       style="fill:#000000;fill-opacity:1" />
  </g>
  <g
     aria-label="OUTPUTS"
     id="text1611-3"
     style="font-size:20px;fill:#000000;fill-opacity:1"
     transform="translate(8.7838349,83.669965)">
    <path
       d="m 337.12009,272.26144 q -1.71875,0 -2.66602,1.26954 -0.94726,1.26953 -0.94726,3.57421 0,2.29493 0.94726,3.56446 0.94727,1.26953 2.66602,1.26953 1.72851,0 2.67578,-1.26953 0.94726,-1.26953 0.94726,-3.56446 0,-2.30468 -0.94726,-3.57421 -0.94727,-1.26954 -2.67578,-1.26954 z m 0,-2.72461 q 3.51562,0 5.50781,2.01172 1.99219,2.01172 1.99219,5.55664 0,3.53516 -1.99219,5.54688 -1.99219,2.01172 -5.50781,2.01172 -3.50586,0 -5.50782,-2.01172 -1.99218,-2.01172 -1.99218,-5.54688 0,-3.54492 1.99218,-5.55664 2.00196,-2.01172 5.50782,-2.01172 z"
       id="path4277"
       style="fill:#000000;fill-opacity:1" />
    <path
       d="m 347.46188,269.80051 h 3.75977 v 8.74023 q 0,1.80664 0.58594,2.58789 0.5957,0.77149 1.93359,0.77149 1.34766,0 1.93359,-0.77149 0.59571,-0.78125 0.59571,-2.58789 v -8.74023 h 3.75976 v 8.74023 q 0,3.0957 -1.55273,4.60938 -1.55274,1.51367 -4.73633,1.51367 -3.17383,0 -4.72656,-1.51367 -1.55274,-1.51368 -1.55274,-4.60938 z"
       id="path4274"
       style="fill:#000000;fill-opacity:1" />
    <path
       d="m 361.96384,269.80051 h 13.4375 v 2.84179 h -4.83399 v 11.73828 h -3.75976 V 272.6423 h -4.84375 z"
       id="path4271"
       style="fill:#000000;fill-opacity:1" />
    <path
       d="m 377.3447,269.80051 h 6.24023 q 2.7832,0 4.26758,1.24023 1.49414,1.23047 1.49414,3.51563 0,2.29492 -1.49414,3.53515 -1.48438,1.23047 -4.26758,1.23047 h -2.48047 v 5.05859 h -3.75976 z m 3.75976,2.72461 v 4.07226 h 2.08008 q 1.09375,0 1.68945,-0.52734 0.59571,-0.53711 0.59571,-1.51367 0,-0.97657 -0.59571,-1.50391 -0.5957,-0.52734 -1.68945,-0.52734 z"
       id="path4268"
       style="fill:#000000;fill-opacity:1" />
    <path
       d="m 392.0029,269.80051 h 3.75976 v 8.74023 q 0,1.80664 0.58594,2.58789 0.59571,0.77149 1.9336,0.77149 1.34765,0 1.93359,-0.77149 0.5957,-0.78125 0.5957,-2.58789 v -8.74023 h 3.75977 v 8.74023 q 0,3.0957 -1.55274,4.60938 -1.55273,1.51367 -4.73632,1.51367 -3.17383,0 -4.72657,-1.51367 -1.55273,-1.51368 -1.55273,-4.60938 z"
       id="path4265"
       style="fill:#000000;fill-opacity:1" />
    <path
       d="m 406.50485,269.80051 h 13.4375 v 2.84179 h -4.83398 v 11.73828 H 411.3486 V 272.6423 h -4.84375 z"
       id="path4262"
       style="fill:#000000;fill-opacity:1" />
    <path
       d="m 432.0322,270.25949 v 3.08594 q -1.20118,-0.53711 -2.34375,-0.81055 -1.14258,-0.27344 -2.15821,-0.27344 -1.34765,0 -1.99218,0.3711 -0.64454,0.37109 -0.64454,1.15234 0,0.58594 0.42969,0.91797 0.43945,0.32227 1.58203,0.55664 l 1.60157,0.32227 q 2.43164,0.48828 3.45703,1.48437 1.02539,0.9961 1.02539,2.83203 0,2.41211 -1.43555,3.59375 -1.42578,1.17188 -4.36523,1.17188 -1.38672,0 -2.78321,-0.26367 -1.39648,-0.26368 -2.79297,-0.78125 v -3.17383 q 1.39649,0.74219 2.69532,1.12304 1.30859,0.3711 2.51953,0.3711 1.23047,0 1.88476,-0.41016 0.6543,-0.41015 0.6543,-1.17187 0,-0.6836 -0.44922,-1.05469 -0.43945,-0.37109 -1.76758,-0.66406 l -1.45507,-0.32227 q -2.1875,-0.46875 -3.20313,-1.49414 -1.00586,-1.02539 -1.00586,-2.76367 0,-2.17774 1.40625,-3.34961 1.40625,-1.17188 4.04297,-1.17188 1.20117,0 2.4707,0.18555 1.26953,0.17578 2.62696,0.53711 z"
       id="path4259"
       style="fill:#000000;fill-opacity:1" />
  </g>
</svg>
